HIERARCHY
ROOT joint_Root
{
	OFFSET 0.0 0.0 0.0
	CHANNELS 6 Xposition Yposition Zposition Zrotation Xrotation Yrotation 
	JOINT Hips
	{
		OFFSET 4.5925 91.4895 -427.239
		CHANNELS 6 Xposition Yposition Zposition Zrotation Xrotation Yrotation 
		JOINT Spine
		{
			OFFSET 15.7357 0.0 0.0
			CHANNELS 6 Xposition Yposition Zposition Zrotation Xrotation Yrotation 
			JOINT Chest
			{
				OFFSET 8.98455 -0.406207 0.0
				CHANNELS 6 Xposition Yposition Zposition Zrotation Xrotation Yrotation 
				JOINT Neck
				{
					OFFSET 16.3773 0.0 0.0
					CHANNELS 6 Xposition Yposition Zposition Zrotation Xrotation Yrotation 
					JOINT Head
					{
						OFFSET 6.45672 0.0 0.0
						CHANNELS 6 Xposition Yposition Zposition Zrotation Xrotation Yrotation 
						End Site
						{
							OFFSET 0.0 0.0 0.0
						}
					}
				}
				JOINT Shoulder_L
				{
					OFFSET 12.9942 -0.242716 4.98039
					CHANNELS 6 Xposition Yposition Zposition Zrotation Xrotation Yrotation 
					JOINT UpperArm_L
					{
						OFFSET 5.34809 0.0 0.0
						CHANNELS 6 Xposition Yposition Zposition Zrotation Xrotation Yrotation 
						JOINT LowerArm_L
						{
							OFFSET 24.3286 1.87007e-05 0.0
							CHANNELS 6 Xposition Yposition Zposition Zrotation Xrotation Yrotation 
							JOINT Hand_L
							{
								OFFSET 22.2916 0.0 0.0
								CHANNELS 6 Xposition Yposition Zposition Zrotation Xrotation Yrotation 
								End Site
								{
									OFFSET 0.0 0.0 0.0
								}
							}
						}
					}
				}
				JOINT Shoulder_R
				{
					OFFSET 12.9945 -0.242716 -4.98039
					CHANNELS 6 Xposition Yposition Zposition Zrotation Xrotation Yrotation 
					JOINT UpperArm_R
					{
						OFFSET -5.34813 0.0 0.0
						CHANNELS 6 Xposition Yposition Zposition Zrotation Xrotation Yrotation 
						JOINT LowerArm_R
						{
							OFFSET -24.3289 0.000322201 0.0
							CHANNELS 6 Xposition Yposition Zposition Zrotation Xrotation Yrotation 
							JOINT Hand_R
							{
								OFFSET -22.2915 -0.000108084 0.0
								CHANNELS 6 Xposition Yposition Zposition Zrotation Xrotation Yrotation 
								End Site
								{
									OFFSET 0.0 0.0 0.0
								}
							}
						}
					}
				}
			}
		}
		JOINT UpperLeg_L
		{
			OFFSET -2.19248 -6.46944 0.0
			CHANNELS 6 Xposition Yposition Zposition Zrotation Xrotation Yrotation 
			JOINT LowerLeg_L
			{
				OFFSET 39.0811 0.0 -1.23785e-05
				CHANNELS 6 Xposition Yposition Zposition Zrotation Xrotation Yrotation 
				JOINT Foot_L
				{
					OFFSET 40.9854 0.0 -1.26872e-05
					CHANNELS 6 Xposition Yposition Zposition Zrotation Xrotation Yrotation 
					JOINT Toes_L
					{
						OFFSET 11.7543 0.0 0.0
						CHANNELS 6 Xposition Yposition Zposition Zrotation Xrotation Yrotation 
						End Site
						{
							OFFSET 0.0 0.0 0.0
						}
					}
				}
			}
		}
		JOINT UpperLeg_R
		{
			OFFSET -2.19251 6.46944 0.0
			CHANNELS 6 Xposition Yposition Zposition Zrotation Xrotation Yrotation 
			JOINT LowerLeg_R
			{
				OFFSET -39.0811 -0.00228153 -0.0401928
				CHANNELS 6 Xposition Yposition Zposition Zrotation Xrotation Yrotation 
				JOINT Foot_R
				{
					OFFSET -40.9854 0.0 0.0
					CHANNELS 6 Xposition Yposition Zposition Zrotation Xrotation Yrotation 
					JOINT Toes_R
					{
						OFFSET -11.7543 0.0 0.0
						CHANNELS 6 Xposition Yposition Zposition Zrotation Xrotation Yrotation 
						End Site
						{
							OFFSET 0.0 0.0 0.0
						}
					}
				}
			}
		}
	}
}
MOTION
Frames:	4
Frame Time:	0.0333333
0.000000 0.000000 0.000000 0.000000 0.000000 -0.000000 135.883000 85.130700 -100.676000 89.360900 0.246985 -2.286180 15.735700 0.000005 -0.000001 100.801000 80.843400 -102.210000 8.984550 -0.406207 -0.000000 10.279300 3.378580 -3.119660 16.377300 -0.000001 -0.000001 -1.093450 -7.116230 1.726090 6.456720 -0.000001 -0.000000 -6.546680 -11.443100 6.376640 12.994200 -0.242716 4.980390 -91.948300 5.518250 -70.530800 5.348090 -0.000007 -0.000001 -60.071300 31.025700 -27.336700 24.328600 0.000019 0.000005 0.007402 -0.009149 -95.326200 22.291600 -0.000001 0.000005 15.685800 5.604240 -11.601800 12.994500 -0.242716 -4.980390 88.276500 11.806700 -81.631200 -5.348130 -0.000001 -0.000004 -66.153000 28.316600 12.722500 -24.328900 0.000322 -0.000009 -13.134500 -18.731000 -35.984100 -22.291500 -0.000108 -0.000004 14.236500 5.489110 -6.119970 -2.192480 -6.469440 -0.000000 178.037000 -8.584610 -30.495000 39.081100 -0.000007 -0.000012 -0.460587 0.328408 54.511400 40.985400 -0.000006 -0.000013 0.077712 -7.223830 -77.140500 11.754300 -0.000000 0.000003 -0.000103 -0.001057 -16.618100 -2.192510 6.469440 -0.000001 172.571000 11.413600 177.572000 -39.081100 -0.002282 -0.040193 0.236657 -0.136267 59.728200 -40.985400 0.000008 0.000006 1.836730 -0.095941 -43.481500 -11.754300 -0.000006 -0.000006 -0.122680 -0.497663 -37.468600
0.000000 0.000000 0.000000 0.000000 0.000000 -0.000000 136.479000 85.998100 -96.765100 90.098900 3.879410 -2.896970 15.735700 0.000005 -0.000001 89.173000 81.272800 -90.435400 8.984550 -0.406207 -0.000000 9.684940 -0.271545 -2.499790 16.377300 -0.000001 -0.000001 -0.806528 -7.420740 1.223700 6.456720 -0.000001 -0.000000 -6.198510 -9.800010 6.155040 12.994200 -0.242716 4.980390 -90.434600 1.321010 -71.805700 5.348090 -0.000007 -0.000001 -61.332300 32.428800 -42.715100 24.328600 0.000019 0.000005 -0.838187 0.256495 -106.288000 22.291600 -0.000001 0.000005 16.020700 5.591670 -10.858100 12.994500 -0.242716 -4.980390 88.190800 8.999490 -78.575700 -5.348130 -0.000001 -0.000004 -69.552600 35.980700 26.115900 -24.328900 0.000322 -0.000009 -19.734600 -19.877900 -46.528100 -22.291500 -0.000108 -0.000004 9.765790 5.518610 -7.314030 -2.192480 -6.469440 -0.000000 177.402000 -5.600760 -26.396100 39.081100 -0.000007 -0.000012 -0.414323 0.333828 51.141900 40.985400 -0.000006 -0.000013 0.260672 -6.527090 -78.318100 11.754300 -0.000000 0.000003 -0.000097 -0.001006 -16.616200 -2.192510 6.469440 -0.000001 174.650000 9.502150 168.550000 -39.081100 -0.002282 -0.040193 0.194492 -0.069831 69.953900 -40.985400 0.000008 0.000006 5.675090 -2.867960 -37.034000 -11.754300 -0.000006 -0.000006 -0.017266 -0.151644 -22.764000
0.000000 0.000000 0.000000 0.000000 0.000000 -0.000000 136.810000 87.727300 -92.630200 89.662500 6.299640 -3.079460 15.735700 0.000005 -0.000001 73.487200 81.153100 -74.322900 8.984550 -0.406207 -0.000000 9.187840 -5.012060 -1.267700 16.377300 -0.000001 -0.000001 -0.228625 -6.498330 1.121030 6.456720 -0.000001 -0.000000 -5.629040 -6.678170 5.437980 12.994200 -0.242716 4.980390 -89.193700 -2.465550 -71.886700 5.348090 -0.000007 -0.000001 -60.666300 29.484800 -53.887700 24.328600 0.000019 0.000005 -6.954480 3.467870 -116.325000 22.291600 -0.000001 0.000005 15.960700 5.573360 -9.853640 12.994500 -0.242716 -4.980390 88.850200 5.162760 -77.423100 -5.348130 -0.000001 -0.000004 -73.217600 40.159500 35.445800 -24.328900 0.000322 -0.000009 -21.434100 -16.048900 -54.852700 -22.291500 -0.000108 -0.000004 7.159840 5.531710 -7.874060 -2.192480 -6.469440 -0.000000 178.386000 -5.054440 -19.990600 39.081100 -0.000007 -0.000012 -0.319535 0.328484 44.209500 40.985400 -0.000006 -0.000013 0.676910 -4.567080 -77.991700 11.754300 -0.000000 0.000003 0.000398 0.008283 -16.237200 -2.192510 6.469440 -0.000001 176.854000 8.271920 161.543000 -39.081100 -0.002282 -0.040193 0.133146 -0.034280 75.240900 -40.985400 0.000008 0.000006 5.762490 -3.290490 -43.953500 -11.754300 -0.000006 -0.000006 -0.018604 -0.159433 -23.084400
0.000000 0.000000 0.000000 0.000000 0.000000 -0.000000 136.970000 89.598700 -88.166800 88.564500 6.414390 -2.166470 15.735700 0.000005 -0.000001 66.206500 80.584100 -66.418400 8.984550 -0.406207 -0.000000 9.512200 -7.557010 0.205732 16.377300 -0.000001 -0.000001 0.338589 -6.090970 1.392300 6.456720 -0.000001 -0.000000 -4.963000 -4.226640 4.220820 12.994200 -0.242716 4.980390 -87.909400 -6.533600 -72.211000 5.348090 -0.000007 -0.000001 -62.320300 25.518700 -59.484600 24.328600 0.000019 0.000005 -8.255820 5.578640 -123.817000 22.291600 -0.000001 0.000005 14.240800 5.564760 -9.418570 12.994500 -0.242716 -4.980390 89.729000 1.109880 -76.233000 -5.348130 -0.000001 -0.000004 -75.401200 41.733200 41.530200 -24.328900 0.000322 -0.000009 -19.409900 -10.858100 -61.882600 -22.291500 -0.000108 -0.000004 6.802970 5.546350 -8.535490 -2.192480 -6.469440 -0.000000 -179.654000 -7.940390 -10.955700 39.081100 -0.000007 -0.000012 -0.114425 0.165653 34.635200 40.985400 -0.000006 -0.000013 2.361200 -1.792740 -76.912300 11.754300 -0.000000 0.000003 0.001678 0.035978 -15.117300 -2.192510 6.469440 -0.000001 178.996000 6.278400 156.755000 -39.081100 -0.002282 -0.040193 0.081813 -0.021610 74.659800 -40.985400 0.000008 0.000006 4.503470 -3.808400 -48.384200 -11.754300 -0.000006 -0.000006 -0.018200 -0.157108 -22.988700
